# xmcd
#
# Track frame offsets:
#	150
#	13327
#	27920
#	42789
#	59269
#	74704
#	94751
#	108223
#	129545
#	142089
#	158711
#	174574
#	188816
#	201275
#
# Disc length: 2913 seconds
#
# Revision: 0
# Processed by: cddbd v1.5.2PL0 Copyright (c) Steve Scherf et al.
# Submitted via: EasyCDDAExtractor 11.5.3.1
#
DISCID=c90b5f0e
DTITLE=Various Artist - Mr Music Country  01 2009
DYEAR=1900
DGENRE=Country
TTITLE0=Bob Plunkert - Lookin' for tomorrow
TTITLE1=Ralph Parker - Thinkin' 'bout the good times
TTITLE2=Myra Pearce - Take the high road home
TTITLE3=L. M. Stone - Heaven and hell
TTITLE4=Rodney Hayden - Something stronger than me
TTITLE5=Ted Russel Kamp - Music is my mistress
TTITLE6=Jerry Sartain and Rhonda Vincent - Two people in love
TTITLE7=Little Green - Give me a reason
TTITLE8=Amber Digby - We're the kind of people (that make the jukebox play)
TTITLE9=Clay Cooper - Go girl go
TTITLE10=Kriztina Åhs and Countryfield - Roads
TTITLE11=Richard Hailey - Settin' for what you get
TTITLE12=Allison Winn Crowson - Undo the right
TTITLE13=Johnny Bush - Wino's prayer
EXTD=
EXTT0=
EXTT1=
EXTT2=
EXTT3=
EXTT4=
EXTT5=
EXTT6=
EXTT7=
EXTT8=
EXTT9=
EXTT10=
EXTT11=
EXTT12=
EXTT13=
PLAYORDER=
